<?xml version="1.0" encoding="UTF-8" standalone="no"?>
<!DOCTYPE svg PUBLIC "-//W3C//DTD SVG 1.1//EN"
 "http://www.w3.org/Graphics/SVG/1.1/DTD/svg11.dtd">
<!-- Generated by graphviz version 5.0.0 (20220707.1540)
 -->
<!-- Title: dependencies Pages: 1 -->
<svg width="390pt" height="174pt"
 viewBox="0.00 0.00 390.00 173.80" xmlns="http://www.w3.org/2000/svg" xmlns:xlink="http://www.w3.org/1999/xlink">
<g id="graph0" class="graph" transform="scale(1 1) rotate(0) translate(4 169.8)">
<title>dependencies</title>
<polygon fill="white" stroke="transparent" points="-4,4 -4,-169.8 386,-169.8 386,4 -4,4"/>
<text text-anchor="middle" x="191" y="-8.2" font-family="sans-serif" font-size="14.00">dependencies</text>
<g id="clust1" class="cluster">
<title>cluster_AuthenticationModule</title>
<polygon fill="none" stroke="black" stroke-dasharray="1,5" points="8,-32.8 8,-157.8 374,-157.8 374,-32.8 8,-32.8"/>
</g>
<g id="clust4" class="cluster">
<title>cluster_AuthenticationModule_imports</title>
<polygon fill="none" stroke="black" points="162,-40.8 162,-92.8 366,-92.8 366,-40.8 162,-40.8"/>
</g>
<g id="clust2" class="cluster">
<title>cluster_AuthenticationModule_declarations</title>
<polygon fill="none" stroke="black" points="16,-40.8 16,-92.8 154,-92.8 154,-40.8 16,-40.8"/>
</g>
<!-- LogoutComponent -->
<g id="node1" class="node">
<title>LogoutComponent</title>
<polygon fill="#ffffb3" stroke="black" points="145.77,-84.8 24.23,-84.8 24.23,-48.8 145.77,-48.8 145.77,-84.8"/>
<text text-anchor="middle" x="85" y="-62.6" font-family="Times,serif" font-size="14.00">LogoutComponent</text>
</g>
<!-- AuthenticationModule -->
<g id="node2" class="node">
<title>AuthenticationModule</title>
<polygon fill="#8dd3c7" stroke="black" points="246.25,-149.8 243.25,-153.8 222.25,-153.8 219.25,-149.8 103.75,-149.8 103.75,-113.8 246.25,-113.8 246.25,-149.8"/>
<text text-anchor="middle" x="175" y="-127.6" font-family="Times,serif" font-size="14.00">AuthenticationModule</text>
</g>
<!-- LogoutComponent&#45;&gt;AuthenticationModule -->
<g id="edge1" class="edge">
<title>LogoutComponent&#45;&gt;AuthenticationModule</title>
<path fill="none" stroke="black" d="M124.76,-84.91C124.76,-84.91 124.76,-103.79 124.76,-103.79"/>
<polygon fill="black" stroke="black" points="121.26,-103.79 124.76,-113.79 128.26,-103.79 121.26,-103.79"/>
</g>
<!-- AuthenticationRoutingModule -->
<g id="node3" class="node">
<title>AuthenticationRoutingModule</title>
<polygon fill="#8dd3c7" stroke="black" points="357.87,-84.8 354.87,-88.8 333.87,-88.8 330.87,-84.8 170.13,-84.8 170.13,-48.8 357.87,-48.8 357.87,-84.8"/>
<text text-anchor="middle" x="264" y="-62.6" font-family="Times,serif" font-size="14.00">AuthenticationRoutingModule</text>
</g>
<!-- AuthenticationRoutingModule&#45;&gt;AuthenticationModule -->
<g id="edge2" class="edge">
<title>AuthenticationRoutingModule&#45;&gt;AuthenticationModule</title>
<path fill="none" stroke="black" d="M208.22,-84.91C208.22,-84.91 208.22,-103.79 208.22,-103.79"/>
<polygon fill="black" stroke="black" points="204.72,-103.79 208.22,-113.79 211.72,-103.79 204.72,-103.79"/>
</g>
</g>
</svg>
