<?xml version="1.0" encoding="UTF-8" standalone="no"?>
<!DOCTYPE svg PUBLIC "-//W3C//DTD SVG 1.1//EN"
 "http://www.w3.org/Graphics/SVG/1.1/DTD/svg11.dtd">
<!-- Generated by graphviz version 5.0.0 (20220707.1540)
 -->
<!-- Title: dependencies Pages: 1 -->
<svg width="384pt" height="174pt"
 viewBox="0.00 0.00 384.00 173.80" xmlns="http://www.w3.org/2000/svg" xmlns:xlink="http://www.w3.org/1999/xlink">
<g id="graph0" class="graph" transform="scale(1 1) rotate(0) translate(4 169.8)">
<title>dependencies</title>
<polygon fill="white" stroke="transparent" points="-4,4 -4,-169.8 380,-169.8 380,4 -4,4"/>
<text text-anchor="middle" x="188" y="-8.2" font-family="sans-serif" font-size="14.00">dependencies</text>
<g id="clust1" class="cluster">
<title>cluster_AdminModule</title>
<polygon fill="none" stroke="black" stroke-dasharray="1,5" points="8,-32.8 8,-157.8 368,-157.8 368,-32.8 8,-32.8"/>
</g>
<g id="clust4" class="cluster">
<title>cluster_AdminModule_imports</title>
<polygon fill="none" stroke="black" points="200,-40.8 200,-92.8 360,-92.8 360,-40.8 200,-40.8"/>
</g>
<g id="clust2" class="cluster">
<title>cluster_AdminModule_declarations</title>
<polygon fill="none" stroke="black" points="16,-40.8 16,-92.8 192,-92.8 192,-40.8 16,-40.8"/>
</g>
<!-- AdminLayoutComponent -->
<g id="node1" class="node">
<title>AdminLayoutComponent</title>
<polygon fill="#ffffb3" stroke="black" points="183.88,-84.8 24.12,-84.8 24.12,-48.8 183.88,-48.8 183.88,-84.8"/>
<text text-anchor="middle" x="104" y="-62.6" font-family="Times,serif" font-size="14.00">AdminLayoutComponent</text>
</g>
<!-- AdminModule -->
<g id="node2" class="node">
<title>AdminModule</title>
<polygon fill="#8dd3c7" stroke="black" points="241.44,-149.8 238.44,-153.8 217.44,-153.8 214.44,-149.8 142.56,-149.8 142.56,-113.8 241.44,-113.8 241.44,-149.8"/>
<text text-anchor="middle" x="192" y="-127.6" font-family="Times,serif" font-size="14.00">AdminModule</text>
</g>
<!-- AdminLayoutComponent&#45;&gt;AdminModule -->
<g id="edge1" class="edge">
<title>AdminLayoutComponent&#45;&gt;AdminModule</title>
<path fill="none" stroke="black" d="M163.36,-84.91C163.36,-84.91 163.36,-103.79 163.36,-103.79"/>
<polygon fill="black" stroke="black" points="159.86,-103.79 163.36,-113.79 166.86,-103.79 159.86,-103.79"/>
</g>
<!-- AdminRoutingModule -->
<g id="node3" class="node">
<title>AdminRoutingModule</title>
<polygon fill="#8dd3c7" stroke="black" points="351.56,-84.8 348.56,-88.8 327.56,-88.8 324.56,-84.8 208.44,-84.8 208.44,-48.8 351.56,-48.8 351.56,-84.8"/>
<text text-anchor="middle" x="280" y="-62.6" font-family="Times,serif" font-size="14.00">AdminRoutingModule</text>
</g>
<!-- AdminRoutingModule&#45;&gt;AdminModule -->
<g id="edge2" class="edge">
<title>AdminRoutingModule&#45;&gt;AdminModule</title>
<path fill="none" stroke="black" d="M224.72,-84.91C224.72,-84.91 224.72,-103.79 224.72,-103.79"/>
<polygon fill="black" stroke="black" points="221.22,-103.79 224.72,-113.79 228.22,-103.79 221.22,-103.79"/>
</g>
</g>
</svg>
