<?xml version="1.0" encoding="UTF-8" standalone="no"?>
<!DOCTYPE svg PUBLIC "-//W3C//DTD SVG 1.1//EN"
 "http://www.w3.org/Graphics/SVG/1.1/DTD/svg11.dtd">
<!-- Generated by graphviz version 5.0.0 (20220707.1540)
 -->
<!-- Title: dependencies Pages: 1 -->
<svg width="628pt" height="174pt"
 viewBox="0.00 0.00 628.00 173.80" xmlns="http://www.w3.org/2000/svg" xmlns:xlink="http://www.w3.org/1999/xlink">
<g id="graph0" class="graph" transform="scale(1 1) rotate(0) translate(4 169.8)">
<title>dependencies</title>
<polygon fill="white" stroke="transparent" points="-4,4 -4,-169.8 624,-169.8 624,4 -4,4"/>
<text text-anchor="middle" x="310" y="-8.2" font-family="sans-serif" font-size="14.00">dependencies</text>
<g id="clust1" class="cluster">
<title>cluster_PublicModule</title>
<polygon fill="none" stroke="black" stroke-dasharray="1,5" points="8,-32.8 8,-157.8 612,-157.8 612,-32.8 8,-32.8"/>
</g>
<g id="clust2" class="cluster">
<title>cluster_PublicModule_declarations</title>
<polygon fill="none" stroke="black" points="180,-40.8 180,-92.8 604,-92.8 604,-40.8 180,-40.8"/>
</g>
<g id="clust6" class="cluster">
<title>cluster_PublicModule_imports</title>
<polygon fill="none" stroke="black" points="16,-40.8 16,-92.8 172,-92.8 172,-40.8 16,-40.8"/>
</g>
<!-- HomeComponent -->
<g id="node1" class="node">
<title>HomeComponent</title>
<polygon fill="#ffffb3" stroke="black" points="595.55,-84.8 480.45,-84.8 480.45,-48.8 595.55,-48.8 595.55,-84.8"/>
<text text-anchor="middle" x="538" y="-62.6" font-family="Times,serif" font-size="14.00">HomeComponent</text>
</g>
<!-- PublicModule -->
<g id="node4" class="node">
<title>PublicModule</title>
<polygon fill="#8dd3c7" stroke="black" points="372.83,-149.8 369.83,-153.8 348.83,-153.8 345.83,-149.8 277.17,-149.8 277.17,-113.8 372.83,-113.8 372.83,-149.8"/>
<text text-anchor="middle" x="325" y="-127.6" font-family="Times,serif" font-size="14.00">PublicModule</text>
</g>
<!-- HomeComponent&#45;&gt;PublicModule -->
<g id="edge1" class="edge">
<title>HomeComponent&#45;&gt;PublicModule</title>
<path fill="none" stroke="black" d="M538,-84.91C538,-104.14 538,-131.8 538,-131.8 538,-131.8 382.8,-131.8 382.8,-131.8"/>
<polygon fill="black" stroke="black" points="382.8,-128.3 372.8,-131.8 382.8,-135.3 382.8,-128.3"/>
</g>
<!-- PLayoutComponent -->
<g id="node2" class="node">
<title>PLayoutComponent</title>
<polygon fill="#ffffb3" stroke="black" points="462.27,-84.8 333.73,-84.8 333.73,-48.8 462.27,-48.8 462.27,-84.8"/>
<text text-anchor="middle" x="398" y="-62.6" font-family="Times,serif" font-size="14.00">PLayoutComponent</text>
</g>
<!-- PLayoutComponent&#45;&gt;PublicModule -->
<g id="edge2" class="edge">
<title>PLayoutComponent&#45;&gt;PublicModule</title>
<path fill="none" stroke="black" d="M353.14,-84.91C353.14,-84.91 353.14,-103.79 353.14,-103.79"/>
<polygon fill="black" stroke="black" points="349.64,-103.79 353.14,-113.79 356.64,-103.79 349.64,-103.79"/>
</g>
<!-- RegisterComponent -->
<g id="node3" class="node">
<title>RegisterComponent</title>
<polygon fill="#ffffb3" stroke="black" points="315.99,-84.8 188.01,-84.8 188.01,-48.8 315.99,-48.8 315.99,-84.8"/>
<text text-anchor="middle" x="252" y="-62.6" font-family="Times,serif" font-size="14.00">RegisterComponent</text>
</g>
<!-- RegisterComponent&#45;&gt;PublicModule -->
<g id="edge3" class="edge">
<title>RegisterComponent&#45;&gt;PublicModule</title>
<path fill="none" stroke="black" d="M296.66,-84.91C296.66,-84.91 296.66,-103.79 296.66,-103.79"/>
<polygon fill="black" stroke="black" points="293.16,-103.79 296.66,-113.79 300.16,-103.79 293.16,-103.79"/>
</g>
<!-- PublicRoutingModule -->
<g id="node5" class="node">
<title>PublicRoutingModule</title>
<polygon fill="#8dd3c7" stroke="black" points="164.45,-84.8 161.45,-88.8 140.45,-88.8 137.45,-84.8 23.55,-84.8 23.55,-48.8 164.45,-48.8 164.45,-84.8"/>
<text text-anchor="middle" x="94" y="-62.6" font-family="Times,serif" font-size="14.00">PublicRoutingModule</text>
</g>
<!-- PublicRoutingModule&#45;&gt;PublicModule -->
<g id="edge4" class="edge">
<title>PublicRoutingModule&#45;&gt;PublicModule</title>
<path fill="none" stroke="black" d="M94,-84.91C94,-104.14 94,-131.8 94,-131.8 94,-131.8 267.14,-131.8 267.14,-131.8"/>
<polygon fill="black" stroke="black" points="267.14,-135.3 277.14,-131.8 267.14,-128.3 267.14,-135.3"/>
</g>
</g>
</svg>
