<?xml version="1.0" encoding="UTF-8" standalone="no"?>
<!DOCTYPE svg PUBLIC "-//W3C//DTD SVG 1.1//EN"
 "http://www.w3.org/Graphics/SVG/1.1/DTD/svg11.dtd">
<!-- Generated by graphviz version 5.0.0 (20220707.1540)
 -->
<!-- Title: dependencies Pages: 1 -->
<svg width="1800pt" height="247pt"
 viewBox="0.00 0.00 1800.00 246.80" xmlns="http://www.w3.org/2000/svg" xmlns:xlink="http://www.w3.org/1999/xlink">
<g id="graph0" class="graph" transform="scale(1 1) rotate(0) translate(4 242.8)">
<title>dependencies</title>
<polygon fill="white" stroke="transparent" points="-4,4 -4,-242.8 1796,-242.8 1796,4 -4,4"/>
<text text-anchor="middle" x="896" y="-8.2" font-family="sans-serif" font-size="14.00">dependencies</text>
<g id="clust1" class="cluster">
<title>cluster_AdminModule</title>
<polygon fill="none" stroke="black" stroke-dasharray="1,5" points="8,-32.8 8,-157.8 368,-157.8 368,-32.8 8,-32.8"/>
</g>
<g id="clust2" class="cluster">
<title>cluster_AdminModule_declarations</title>
<polygon fill="none" stroke="black" points="184,-40.8 184,-92.8 360,-92.8 360,-40.8 184,-40.8"/>
</g>
<g id="clust4" class="cluster">
<title>cluster_AdminModule_imports</title>
<polygon fill="none" stroke="black" points="16,-40.8 16,-92.8 176,-92.8 176,-40.8 16,-40.8"/>
</g>
<g id="clust14" class="cluster">
<title>cluster_AppModule</title>
<polygon fill="none" stroke="black" stroke-dasharray="1,5" points="376,-32.8 376,-230.8 798,-230.8 798,-32.8 376,-32.8"/>
</g>
<g id="clust15" class="cluster">
<title>cluster_AppModule_declarations</title>
<polygon fill="none" stroke="black" points="536,-40.8 536,-92.8 790,-92.8 790,-40.8 536,-40.8"/>
</g>
<g id="clust18" class="cluster">
<title>cluster_AppModule_imports</title>
<polygon fill="none" stroke="black" points="384,-40.8 384,-92.8 528,-92.8 528,-40.8 384,-40.8"/>
</g>
<g id="clust20" class="cluster">
<title>cluster_AppModule_bootstrap</title>
<polygon fill="none" stroke="black" points="539,-170.8 539,-222.8 663,-222.8 663,-170.8 539,-170.8"/>
</g>
<g id="clust28" class="cluster">
<title>cluster_AuthenticationModule</title>
<polygon fill="none" stroke="black" stroke-dasharray="1,5" points="806,-32.8 806,-157.8 1172,-157.8 1172,-32.8 806,-32.8"/>
</g>
<g id="clust29" class="cluster">
<title>cluster_AuthenticationModule_declarations</title>
<polygon fill="none" stroke="black" points="1026,-40.8 1026,-92.8 1164,-92.8 1164,-40.8 1026,-40.8"/>
</g>
<g id="clust31" class="cluster">
<title>cluster_AuthenticationModule_imports</title>
<polygon fill="none" stroke="black" points="814,-40.8 814,-92.8 1018,-92.8 1018,-40.8 814,-40.8"/>
</g>
<g id="clust41" class="cluster">
<title>cluster_PublicModule</title>
<polygon fill="none" stroke="black" stroke-dasharray="1,5" points="1180,-32.8 1180,-157.8 1784,-157.8 1784,-32.8 1180,-32.8"/>
</g>
<g id="clust42" class="cluster">
<title>cluster_PublicModule_declarations</title>
<polygon fill="none" stroke="black" points="1352,-40.8 1352,-92.8 1776,-92.8 1776,-40.8 1352,-40.8"/>
</g>
<g id="clust46" class="cluster">
<title>cluster_PublicModule_imports</title>
<polygon fill="none" stroke="black" points="1188,-40.8 1188,-92.8 1344,-92.8 1344,-40.8 1188,-40.8"/>
</g>
<!-- AdminLayoutComponent -->
<g id="node1" class="node">
<title>AdminLayoutComponent</title>
<polygon fill="#ffffb3" stroke="black" points="351.88,-84.8 192.12,-84.8 192.12,-48.8 351.88,-48.8 351.88,-84.8"/>
<text text-anchor="middle" x="272" y="-62.6" font-family="Times,serif" font-size="14.00">AdminLayoutComponent</text>
</g>
<!-- AdminModule -->
<g id="node2" class="node">
<title>AdminModule</title>
<polygon fill="#8dd3c7" stroke="black" points="233.44,-149.8 230.44,-153.8 209.44,-153.8 206.44,-149.8 134.56,-149.8 134.56,-113.8 233.44,-113.8 233.44,-149.8"/>
<text text-anchor="middle" x="184" y="-127.6" font-family="Times,serif" font-size="14.00">AdminModule</text>
</g>
<!-- AdminLayoutComponent&#45;&gt;AdminModule -->
<g id="edge1" class="edge">
<title>AdminLayoutComponent&#45;&gt;AdminModule</title>
<path fill="none" stroke="black" d="M212.64,-84.91C212.64,-84.91 212.64,-103.79 212.64,-103.79"/>
<polygon fill="black" stroke="black" points="209.14,-103.79 212.64,-113.79 216.14,-103.79 209.14,-103.79"/>
</g>
<!-- AdminRoutingModule -->
<g id="node3" class="node">
<title>AdminRoutingModule</title>
<polygon fill="#8dd3c7" stroke="black" points="167.56,-84.8 164.56,-88.8 143.56,-88.8 140.56,-84.8 24.44,-84.8 24.44,-48.8 167.56,-48.8 167.56,-84.8"/>
<text text-anchor="middle" x="96" y="-62.6" font-family="Times,serif" font-size="14.00">AdminRoutingModule</text>
</g>
<!-- AdminRoutingModule&#45;&gt;AdminModule -->
<g id="edge2" class="edge">
<title>AdminRoutingModule&#45;&gt;AdminModule</title>
<path fill="none" stroke="black" d="M151.28,-84.91C151.28,-84.91 151.28,-103.79 151.28,-103.79"/>
<polygon fill="black" stroke="black" points="147.78,-103.79 151.28,-113.79 154.78,-103.79 147.78,-103.79"/>
</g>
<!-- AppComponent -->
<g id="node4" class="node">
<title>AppComponent</title>
<polygon fill="#ffffb3" stroke="black" points="781.94,-84.8 676.06,-84.8 676.06,-48.8 781.94,-48.8 781.94,-84.8"/>
<text text-anchor="middle" x="729" y="-62.6" font-family="Times,serif" font-size="14.00">AppComponent</text>
</g>
<!-- AppModule -->
<g id="node6" class="node">
<title>AppModule</title>
<polygon fill="#8dd3c7" stroke="black" points="642.66,-149.8 639.66,-153.8 618.66,-153.8 615.66,-149.8 559.34,-149.8 559.34,-113.8 642.66,-113.8 642.66,-149.8"/>
<text text-anchor="middle" x="601" y="-127.6" font-family="Times,serif" font-size="14.00">AppModule</text>
</g>
<!-- AppComponent&#45;&gt;AppModule -->
<g id="edge3" class="edge">
<title>AppComponent&#45;&gt;AppModule</title>
<path fill="none" stroke="black" d="M729,-84.91C729,-104.14 729,-131.8 729,-131.8 729,-131.8 652.91,-131.8 652.91,-131.8"/>
<polygon fill="black" stroke="black" points="652.91,-128.3 642.91,-131.8 652.91,-135.3 652.91,-128.3"/>
</g>
<!-- LoginComponent -->
<g id="node5" class="node">
<title>LoginComponent</title>
<polygon fill="#ffffb3" stroke="black" points="658.27,-84.8 543.73,-84.8 543.73,-48.8 658.27,-48.8 658.27,-84.8"/>
<text text-anchor="middle" x="601" y="-62.6" font-family="Times,serif" font-size="14.00">LoginComponent</text>
</g>
<!-- LoginComponent&#45;&gt;AppModule -->
<g id="edge4" class="edge">
<title>LoginComponent&#45;&gt;AppModule</title>
<path fill="none" stroke="black" d="M601,-84.91C601,-84.91 601,-103.79 601,-103.79"/>
<polygon fill="black" stroke="black" points="597.5,-103.79 601,-113.79 604.5,-103.79 597.5,-103.79"/>
</g>
<!-- AppComponent  -->
<g id="node8" class="node">
<title>AppComponent </title>
<polygon fill="#80b1d3" stroke="black" points="655.44,-214.8 546.56,-214.8 546.56,-178.8 655.44,-178.8 655.44,-214.8"/>
<text text-anchor="middle" x="601" y="-192.6" font-family="Times,serif" font-size="14.00">AppComponent </text>
</g>
<!-- AppModule&#45;&gt;AppComponent  -->
<g id="edge6" class="edge">
<title>AppModule&#45;&gt;AppComponent </title>
<path fill="none" stroke="black" stroke-dasharray="1,5" d="M601,-149.91C601,-149.91 601,-168.79 601,-168.79"/>
<polygon fill="black" stroke="black" points="597.5,-168.79 601,-178.79 604.5,-168.79 597.5,-168.79"/>
</g>
<!-- AppRoutingModule -->
<g id="node7" class="node">
<title>AppRoutingModule</title>
<polygon fill="#8dd3c7" stroke="black" points="520.28,-84.8 517.28,-88.8 496.28,-88.8 493.28,-84.8 391.72,-84.8 391.72,-48.8 520.28,-48.8 520.28,-84.8"/>
<text text-anchor="middle" x="456" y="-62.6" font-family="Times,serif" font-size="14.00">AppRoutingModule</text>
</g>
<!-- AppRoutingModule&#45;&gt;AppModule -->
<g id="edge5" class="edge">
<title>AppRoutingModule&#45;&gt;AppModule</title>
<path fill="none" stroke="black" d="M456,-84.91C456,-104.14 456,-131.8 456,-131.8 456,-131.8 549.06,-131.8 549.06,-131.8"/>
<polygon fill="black" stroke="black" points="549.06,-135.3 559.06,-131.8 549.06,-128.3 549.06,-135.3"/>
</g>
<!-- LogoutComponent -->
<g id="node9" class="node">
<title>LogoutComponent</title>
<polygon fill="#ffffb3" stroke="black" points="1155.77,-84.8 1034.23,-84.8 1034.23,-48.8 1155.77,-48.8 1155.77,-84.8"/>
<text text-anchor="middle" x="1095" y="-62.6" font-family="Times,serif" font-size="14.00">LogoutComponent</text>
</g>
<!-- AuthenticationModule -->
<g id="node10" class="node">
<title>AuthenticationModule</title>
<polygon fill="#8dd3c7" stroke="black" points="1075.25,-149.8 1072.25,-153.8 1051.25,-153.8 1048.25,-149.8 932.75,-149.8 932.75,-113.8 1075.25,-113.8 1075.25,-149.8"/>
<text text-anchor="middle" x="1004" y="-127.6" font-family="Times,serif" font-size="14.00">AuthenticationModule</text>
</g>
<!-- LogoutComponent&#45;&gt;AuthenticationModule -->
<g id="edge7" class="edge">
<title>LogoutComponent&#45;&gt;AuthenticationModule</title>
<path fill="none" stroke="black" d="M1054.74,-84.91C1054.74,-84.91 1054.74,-103.79 1054.74,-103.79"/>
<polygon fill="black" stroke="black" points="1051.24,-103.79 1054.74,-113.79 1058.24,-103.79 1051.24,-103.79"/>
</g>
<!-- AuthenticationRoutingModule -->
<g id="node11" class="node">
<title>AuthenticationRoutingModule</title>
<polygon fill="#8dd3c7" stroke="black" points="1009.87,-84.8 1006.87,-88.8 985.87,-88.8 982.87,-84.8 822.13,-84.8 822.13,-48.8 1009.87,-48.8 1009.87,-84.8"/>
<text text-anchor="middle" x="916" y="-62.6" font-family="Times,serif" font-size="14.00">AuthenticationRoutingModule</text>
</g>
<!-- AuthenticationRoutingModule&#45;&gt;AuthenticationModule -->
<g id="edge8" class="edge">
<title>AuthenticationRoutingModule&#45;&gt;AuthenticationModule</title>
<path fill="none" stroke="black" d="M971.28,-84.91C971.28,-84.91 971.28,-103.79 971.28,-103.79"/>
<polygon fill="black" stroke="black" points="967.78,-103.79 971.28,-113.79 974.78,-103.79 967.78,-103.79"/>
</g>
<!-- HomeComponent -->
<g id="node12" class="node">
<title>HomeComponent</title>
<polygon fill="#ffffb3" stroke="black" points="1767.55,-84.8 1652.45,-84.8 1652.45,-48.8 1767.55,-48.8 1767.55,-84.8"/>
<text text-anchor="middle" x="1710" y="-62.6" font-family="Times,serif" font-size="14.00">HomeComponent</text>
</g>
<!-- PublicModule -->
<g id="node15" class="node">
<title>PublicModule</title>
<polygon fill="#8dd3c7" stroke="black" points="1544.83,-149.8 1541.83,-153.8 1520.83,-153.8 1517.83,-149.8 1449.17,-149.8 1449.17,-113.8 1544.83,-113.8 1544.83,-149.8"/>
<text text-anchor="middle" x="1497" y="-127.6" font-family="Times,serif" font-size="14.00">PublicModule</text>
</g>
<!-- HomeComponent&#45;&gt;PublicModule -->
<g id="edge9" class="edge">
<title>HomeComponent&#45;&gt;PublicModule</title>
<path fill="none" stroke="black" d="M1710,-84.91C1710,-104.14 1710,-131.8 1710,-131.8 1710,-131.8 1554.8,-131.8 1554.8,-131.8"/>
<polygon fill="black" stroke="black" points="1554.8,-128.3 1544.8,-131.8 1554.8,-135.3 1554.8,-128.3"/>
</g>
<!-- PLayoutComponent -->
<g id="node13" class="node">
<title>PLayoutComponent</title>
<polygon fill="#ffffb3" stroke="black" points="1634.27,-84.8 1505.73,-84.8 1505.73,-48.8 1634.27,-48.8 1634.27,-84.8"/>
<text text-anchor="middle" x="1570" y="-62.6" font-family="Times,serif" font-size="14.00">PLayoutComponent</text>
</g>
<!-- PLayoutComponent&#45;&gt;PublicModule -->
<g id="edge10" class="edge">
<title>PLayoutComponent&#45;&gt;PublicModule</title>
<path fill="none" stroke="black" d="M1525.14,-84.91C1525.14,-84.91 1525.14,-103.79 1525.14,-103.79"/>
<polygon fill="black" stroke="black" points="1521.64,-103.79 1525.14,-113.79 1528.64,-103.79 1521.64,-103.79"/>
</g>
<!-- RegisterComponent -->
<g id="node14" class="node">
<title>RegisterComponent</title>
<polygon fill="#ffffb3" stroke="black" points="1487.99,-84.8 1360.01,-84.8 1360.01,-48.8 1487.99,-48.8 1487.99,-84.8"/>
<text text-anchor="middle" x="1424" y="-62.6" font-family="Times,serif" font-size="14.00">RegisterComponent</text>
</g>
<!-- RegisterComponent&#45;&gt;PublicModule -->
<g id="edge11" class="edge">
<title>RegisterComponent&#45;&gt;PublicModule</title>
<path fill="none" stroke="black" d="M1468.66,-84.91C1468.66,-84.91 1468.66,-103.79 1468.66,-103.79"/>
<polygon fill="black" stroke="black" points="1465.16,-103.79 1468.66,-113.79 1472.16,-103.79 1465.16,-103.79"/>
</g>
<!-- PublicRoutingModule -->
<g id="node16" class="node">
<title>PublicRoutingModule</title>
<polygon fill="#8dd3c7" stroke="black" points="1336.45,-84.8 1333.45,-88.8 1312.45,-88.8 1309.45,-84.8 1195.55,-84.8 1195.55,-48.8 1336.45,-48.8 1336.45,-84.8"/>
<text text-anchor="middle" x="1266" y="-62.6" font-family="Times,serif" font-size="14.00">PublicRoutingModule</text>
</g>
<!-- PublicRoutingModule&#45;&gt;PublicModule -->
<g id="edge12" class="edge">
<title>PublicRoutingModule&#45;&gt;PublicModule</title>
<path fill="none" stroke="black" d="M1266,-84.91C1266,-104.14 1266,-131.8 1266,-131.8 1266,-131.8 1439.14,-131.8 1439.14,-131.8"/>
<polygon fill="black" stroke="black" points="1439.14,-135.3 1449.14,-131.8 1439.14,-128.3 1439.14,-135.3"/>
</g>
</g>
</svg>
